<svg width="64" height="48" viewBox="0 0 64 48" fill="none" xmlns="http://www.w3.org/2000/svg">
<rect width="64" height="48" rx="8" fill="#FFF48D" style="fill:#FFF48D;fill:color(display-p3 1.0000 0.9569 0.5529);fill-opacity:1;"/>
<path d="M18.5636 5.80319V26.5225C18.5636 27.5145 19.3793 28.3256 20.3758 28.3256H32.815C42.2192 28.3256 46.2947 23.0865 46.2947 16.1355C46.2947 9.18452 42.2177 4.00012 32.8135 4.00012H20.3743C19.3778 4.00012 18.5621 4.81128 18.5621 5.80319H18.5636Z" fill="white" style="fill:white;fill-opacity:1;"/>
<path d="M26.8893 9.08579V24.3959H33.5836C39.6627 24.3959 42.2982 20.9782 42.2982 16.1462C42.2982 11.3142 39.6612 7.93286 33.5836 7.93286H28.0484C27.4058 7.93286 26.8893 8.4554 26.8893 9.08731V9.08579Z" fill="#CC0066" style="fill:#CC0066;fill:color(display-p3 0.8000 0.0000 0.4000);fill-opacity:1;"/>
<path fill-rule="evenodd" clip-rule="evenodd" d="M21.9966 26.6759H32.8135C40.4146 26.6759 44.6086 22.9346 44.6086 16.1446C44.6086 12.2316 43.0775 5.65887 32.8135 5.65887H21.9966C21.0366 5.65887 20.2573 6.43357 20.2573 7.39055V24.9458C20.2573 25.9013 21.0366 26.6775 21.9966 26.6775V26.6759ZM20.8361 7.39055C20.8361 6.75105 21.3525 6.2361 21.9951 6.2361H32.812C36.9969 6.2361 44.0268 7.52574 44.0268 16.1446C44.0268 22.564 40.041 26.0987 32.812 26.0987H21.9951C21.3525 26.0987 20.8361 25.5853 20.8361 24.9443V7.39055Z" fill="#232323" style="fill:#232323;fill:color(display-p3 0.1373 0.1373 0.1373);fill-opacity:1;"/>
<path fill-rule="evenodd" clip-rule="evenodd" d="M30.1841 13.9194C29.9806 13.8465 29.7679 13.81 29.537 13.81V13.8009H28.0043V17.4982H29.5552C29.8302 17.4982 30.0687 17.4435 30.2722 17.3524C30.4758 17.2521 30.6444 17.1245 30.7781 16.9605C30.9117 16.7964 31.0089 16.5959 31.0788 16.368C31.1411 16.1402 31.176 15.8941 31.176 15.6207C31.176 15.3108 31.132 15.0465 31.0515 14.8186C30.9634 14.5999 30.8479 14.4085 30.7067 14.2536C30.5563 14.1077 30.3877 13.9893 30.1841 13.9163V13.9194ZM29.8196 16.7706C29.7041 16.807 29.5978 16.8253 29.4823 16.8253V16.8344H28.7821V14.5027H29.3487C29.5431 14.5027 29.7026 14.53 29.8363 14.5847C29.9699 14.6394 30.0747 14.7305 30.1553 14.8308C30.2358 14.9311 30.2965 15.0678 30.333 15.2136C30.3679 15.3594 30.3861 15.5326 30.3861 15.7149C30.3861 15.9245 30.3588 16.0885 30.3072 16.2344C30.254 16.3802 30.1826 16.4896 30.1036 16.5807C30.0231 16.6718 29.9259 16.7356 29.8196 16.7721V16.7706Z" fill="white" style="fill:white;fill-opacity:1;"/>
<path d="M34.375 13.8114V14.495H32.4778V15.2879H34.2231V15.9168H32.4778V16.8191H34.4191V17.5026H31.6894V13.8054H34.375V13.8145V13.8114Z" fill="white" style="fill:white;fill-opacity:1;"/>
<path fill-rule="evenodd" clip-rule="evenodd" d="M38.4337 17.5086L37.0863 13.8113H36.2615L34.905 17.5086H35.7025L35.9866 16.6884H37.3339L37.6089 17.5086H38.4337ZM36.6792 14.7212L37.1319 16.0777H36.2007L36.6701 14.7212H36.6792Z" fill="white" style="fill:white;fill-opacity:1;"/>
<path d="M39.7188 13.8099V16.8252H41.4733V17.5087H38.9305V13.8115H39.7188V13.8099Z" fill="white" style="fill:white;fill-opacity:1;"/>
<path d="M23.7783 17.5634C24.7384 17.5634 25.5161 16.7857 25.5161 15.8242C25.5161 14.8626 24.7384 14.0849 23.7783 14.0849C22.8183 14.0849 22.0406 14.8626 22.0406 15.8242C22.0406 16.7857 22.8183 17.5634 23.7783 17.5634Z" fill="#232323" style="fill:#232323;fill:color(display-p3 0.1373 0.1373 0.1373);fill-opacity:1;"/>
<path d="M24.8127 24.5189C23.4668 24.5189 22.3883 23.3569 22.3883 21.929V19.9072C22.3883 19.1933 22.9276 18.6069 23.605 18.6069C24.2825 18.6069 24.8218 19.1842 24.8218 19.9072V24.5189H24.8127Z" fill="#232323" style="fill:#232323;fill:color(display-p3 0.1373 0.1373 0.1373);fill-opacity:1;"/>
<path d="M49.1702 32.5575H15.7519C15.5848 32.5575 15.4481 32.4208 15.4481 32.2537C15.4481 32.0866 15.5848 31.9499 15.7519 31.9499H49.1702C49.3373 31.9499 49.474 32.0866 49.474 32.2537C49.474 32.4208 49.3373 32.5575 49.1702 32.5575Z" fill="#1D1C1C" style="fill:#1D1C1C;fill:color(display-p3 0.1137 0.1098 0.1098);fill-opacity:1;"/>
<path d="M41.2074 40.1161C41.2074 38.0836 42.6535 36.2319 45.1508 36.2319C47.648 36.2319 49.1048 38.0851 49.1048 40.1161C49.1048 42.147 47.6586 44.0002 45.1508 44.0002C42.6535 44.0002 41.2074 42.147 41.2074 40.1161ZM46.9098 40.1161C46.9098 39.1363 46.2642 38.2325 45.1508 38.2325C44.0373 38.2325 43.3917 39.1378 43.3917 40.1161C43.3917 41.0943 44.048 42.0011 45.1508 42.0011C46.2536 42.0011 46.9098 41.0958 46.9098 40.1161Z" fill="#1D1C1C" style="fill:#1D1C1C;fill:color(display-p3 0.1137 0.1098 0.1098);fill-opacity:1;"/>
<path d="M39.6718 41.5591C40.5042 41.0852 41.0039 40.1798 41.0039 39.1803C41.0039 37.6963 39.9315 36.4324 38.2667 36.4324H34.7714V43.8012H36.936V41.9176H37.3416L38.5796 43.8012H41.1285L39.6718 41.5591ZM37.8307 40.2224H36.936V38.1383H37.8413C38.4247 38.1383 38.7983 38.6122 38.7983 39.1803C38.7983 39.7484 38.4125 40.2224 37.8307 40.2224Z" fill="#1D1C1C" style="fill:#1D1C1C;fill:color(display-p3 0.1137 0.1098 0.1098);fill-opacity:1;"/>
<path d="M24.8919 36.4248L23.5931 40.8163L22.3262 36.4248H20.6022L19.3247 40.8163L18.0366 36.4248H15.752L18.3692 43.7799H20.2498L21.465 39.7757L22.6695 43.7799H24.5592L27.1765 36.4248H24.8919Z" fill="#1D1C1C" style="fill:#1D1C1C;fill:color(display-p3 0.1137 0.1098 0.1098);fill-opacity:1;"/>
<path d="M30.4515 41.9829H30.4454C29.6358 41.9829 29.0677 41.4938 28.8246 40.8467H34.325C34.369 40.6036 34.3918 40.3545 34.3918 40.1024C34.3918 38.076 32.9503 36.2273 30.45 36.2258V38.2218C31.2641 38.2233 31.8262 38.7125 32.0677 39.358H26.575C26.5309 39.6011 26.5081 39.8502 26.5081 40.1024C26.5081 42.1302 27.9512 43.9804 30.4439 43.9804H30.45V41.9829H30.4515Z" fill="#1D1C1C" style="fill:#1D1C1C;fill:color(display-p3 0.1137 0.1098 0.1098);fill-opacity:1;"/>
<path d="M30.4452 43.9789C30.5303 43.9789 30.6123 43.9758 30.6959 43.9728C31.2017 43.947 31.662 43.8437 32.0721 43.6781C32.4822 43.511 32.8422 43.2832 33.1476 43.0067C33.4529 42.7303 33.7066 42.4067 33.9025 42.0497C34.0802 41.7262 34.2109 41.3738 34.2929 41.0077H32.0007C31.9536 41.1049 31.8989 41.1991 31.8366 41.2857C31.7516 41.4057 31.6513 41.5135 31.5374 41.6062C31.4235 41.7004 31.2959 41.7793 31.1561 41.8401C31.0149 41.9009 30.863 41.9434 30.6974 41.9662C30.6169 41.9768 30.5333 41.9829 30.4468 41.9829C29.9303 41.9829 29.5141 41.7839 29.2163 41.4725L27.7262 42.9794C28.3885 43.5915 29.3075 43.9774 30.4468 43.9774L30.4452 43.9789Z" fill="url(#paint0_linear_2740_2179)" style=""/>
<path d="M30.4452 36.2242C28.3308 36.2242 26.9713 37.5549 26.6082 39.1954H28.8928C29.1662 38.6304 29.704 38.2202 30.4452 38.2202C31.0361 38.2202 31.4949 38.4754 31.7941 38.8613L33.298 37.3407C32.6265 36.6602 31.6605 36.2242 30.4468 36.2242H30.4452Z" fill="url(#paint1_linear_2740_2179)" style=""/>
<defs>
<linearGradient id="paint0_linear_2740_2179" x1="33.1749" y1="39.6725" x2="29.7556" y2="43.8604" gradientUnits="userSpaceOnUse">
<stop offset="0.02" stop-color="#1D1C1C" stop-opacity="0" style="stop-color:none;stop-opacity:0;"/>
<stop offset="0.68" stop-color="#1D1C1C" style="stop-color:#1D1C1C;stop-color:color(display-p3 0.1137 0.1098 0.1098);stop-opacity:1;"/>
</linearGradient>
<linearGradient id="paint1_linear_2740_2179" x1="27.2097" y1="40.561" x2="30.7156" y2="37.0962" gradientUnits="userSpaceOnUse">
<stop offset="0.02" stop-color="#1D1C1C" stop-opacity="0" style="stop-color:none;stop-opacity:0;"/>
<stop offset="0.68" stop-color="#1D1C1C" style="stop-color:#1D1C1C;stop-color:color(display-p3 0.1137 0.1098 0.1098);stop-opacity:1;"/>
</linearGradient>
</defs>
</svg>
