<svg width="64" height="48" viewBox="0 0 64 48" fill="none" xmlns="http://www.w3.org/2000/svg">
<rect width="64" height="48" rx="8" fill="#E664A5" style="fill:#E664A5;fill:color(display-p3 0.9020 0.3922 0.6471);fill-opacity:1;"/>
<g clip-path="url(#clip0_4456_418)">
<path d="M48.3892 16.5576H29.7598C31.4143 18.4839 32.1879 21.0645 32.1879 23.977C32.1879 26.8894 31.4098 29.5115 29.7463 31.447H48.3847C53.6927 31.447 55.9956 28.3549 55.9956 23.9862C55.9956 19.6175 53.6927 16.5576 48.3847 16.5576H48.3892Z" fill="black" style="fill:black;fill-opacity:1;"/>
<path d="M8 14.6313V33.3687C8 34.2673 8.71101 35 9.58301 35H20.4494C28.6641 35 32.2236 30.2627 32.2236 23.977C32.2236 17.6912 28.6596 13 20.4449 13H9.58301C8.71101 13 8 13.7327 8 14.6313Z" fill="white" style="fill:white;fill-opacity:1;"/>
<path d="M15.271 17.5991V31.447H21.1201C26.4281 31.447 28.731 28.3549 28.731 23.9862C28.731 19.6175 26.4281 16.5576 21.1201 16.5576H16.2861C15.7226 16.5576 15.271 17.0323 15.271 17.5991Z" fill="#CC0066" style="fill:#CC0066;fill:color(display-p3 0.8000 0.0000 0.4000);fill-opacity:1;"/>
<path d="M20.445 33.5069H11.0006C10.1599 33.5069 9.48022 32.8064 9.48022 31.9401V16.0645C9.48022 15.1981 10.1599 14.4977 11.0006 14.4977H20.4495C29.4154 14.4977 30.7524 20.4424 30.7524 23.9816C30.7524 30.1198 27.0901 33.5069 20.4495 33.5069H20.445ZM11.0006 15.023C10.4372 15.023 9.99001 15.4885 9.99001 16.0645V31.9401C9.99001 32.5207 10.4417 32.9862 11.0006 32.9862H20.4495C26.7636 32.9862 30.2471 29.788 30.2471 23.9816C30.2471 16.1843 24.1074 15.0184 20.4495 15.0184H11.0006V15.023Z" fill="black" style="fill:black;fill-opacity:1;"/>
<path d="M17.3281 22.1152C17.5338 22.1152 17.7216 22.1475 17.9049 22.212C18.0883 22.2765 18.2358 22.3825 18.37 22.5115C18.4952 22.6498 18.5981 22.8203 18.6786 23.0185C18.7501 23.2212 18.7903 23.4609 18.7903 23.7374C18.7903 23.9816 18.759 24.2028 18.7054 24.4056C18.6428 24.6083 18.5533 24.788 18.4371 24.9355C18.3208 25.083 18.1688 25.1982 17.9854 25.2857C17.8021 25.3687 17.5919 25.4148 17.346 25.4148H15.9597V22.106H17.3281V22.1152ZM17.2789 24.8157C17.3817 24.8157 17.4756 24.7973 17.5785 24.765C17.6724 24.7327 17.7618 24.6774 17.8334 24.5945C17.9049 24.5115 17.9675 24.4148 18.0167 24.2857C18.0659 24.1567 18.0883 24.0092 18.0883 23.8203C18.0883 23.659 18.0704 23.5023 18.0391 23.3733C18.0078 23.2443 17.9541 23.1198 17.8826 23.0323C17.811 22.9447 17.7171 22.8618 17.5964 22.8111C17.4756 22.7604 17.337 22.7374 17.1626 22.7374H16.6573V24.8249H17.2834V24.8157H17.2789Z" fill="white" style="fill:white;fill-opacity:1;"/>
<path d="M21.6478 22.1153V22.7282H19.953V23.4378H21.5137V24.0001H19.953V24.8065H21.6881V25.4194H19.251V22.1107H21.6478V22.1199V22.1153Z" fill="white" style="fill:white;fill-opacity:1;"/>
<path d="M24.0715 22.1152L25.2744 25.424H24.5366L24.2906 24.6913H23.0877L22.8328 25.424H22.1218L23.3337 22.1152H24.0715ZM24.1118 24.1475L23.7093 22.9309H23.7004L23.28 24.1475H24.1118Z" fill="white" style="fill:white;fill-opacity:1;"/>
<path d="M26.4192 22.1152V24.8157H27.9843V25.4286H25.7126V22.1198H26.4147L26.4192 22.1152Z" fill="white" style="fill:white;fill-opacity:1;"/>
<path d="M12.6284 25.2995C13.4458 25.2995 14.1085 24.6166 14.1085 23.7742C14.1085 22.9318 13.4458 22.2488 12.6284 22.2488C11.8109 22.2488 11.1482 22.9318 11.1482 23.7742C11.1482 24.6166 11.8109 25.2995 12.6284 25.2995Z" fill="black" style="fill:black;fill-opacity:1;"/>
<path d="M13.7462 31.447C12.5031 31.447 11.5059 30.4102 11.5059 29.1383V27.3364C11.5059 26.7005 12.0022 26.1797 12.6283 26.1797C13.2454 26.1797 13.7507 26.6913 13.7507 27.3364V31.447H13.7417H13.7462Z" fill="black" style="fill:black;fill-opacity:1;"/>
<path d="M36.3064 20.235C35.9487 20.235 35.6714 20.1475 35.4657 19.9723C35.2645 19.7972 35.1616 19.5438 35.1616 19.2166C35.1616 18.9217 35.2645 18.682 35.4702 18.4931C35.6759 18.3041 35.9531 18.212 36.3019 18.212C36.6507 18.212 36.9369 18.2995 37.1337 18.4746C37.3304 18.6498 37.4333 18.8986 37.4333 19.2166C37.4333 19.5346 37.3304 19.765 37.1292 19.9539C36.928 20.1429 36.6507 20.235 36.3019 20.235H36.3064ZM35.3539 28.0322V21.5207H37.2589V28.0322H35.3539Z" fill="white" style="fill:white;fill-opacity:1;"/>
<path d="M39.0387 28.0277V21.5161H40.8452L40.9034 22.8387L40.5233 22.9862C40.6127 22.6913 40.7692 22.424 40.9928 22.1844C41.2164 21.9447 41.4892 21.7512 41.8067 21.6037C42.1242 21.4562 42.4551 21.3825 42.8039 21.3825C43.2779 21.3825 43.6803 21.4839 44.0068 21.682C44.3332 21.8802 44.5792 22.1797 44.7446 22.5761C44.9101 22.9724 44.9951 23.4562 44.9951 24.0277V28.0231H43.0811V24.1844C43.0811 23.9217 43.0454 23.7051 42.9738 23.5346C42.9023 23.3641 42.7949 23.235 42.6474 23.1475C42.4998 23.0599 42.3209 23.0231 42.1063 23.0323C41.9408 23.0323 41.7843 23.0599 41.6412 23.1106C41.4981 23.1659 41.3774 23.2397 41.2745 23.3456C41.1717 23.447 41.0912 23.5622 41.0286 23.6959C40.966 23.8295 40.9392 23.9678 40.9392 24.1244V28.0231H39.0342L39.0387 28.0277Z" fill="white" style="fill:white;fill-opacity:1;"/>
<path d="M51.8279 24.1106C51.6848 23.7788 51.488 23.4931 51.2331 23.2442C50.9782 23 50.6876 22.8064 50.3656 22.6682C50.1465 22.576 49.9095 22.5253 49.668 22.4931L51.8055 20.129L51.4388 19.3687H46.3231V21.1198L48.9928 21.1751L47.2264 23.1521L47.6646 24.364C47.8211 24.2811 47.9777 24.2166 48.1297 24.1659C48.2817 24.1152 48.4248 24.0783 48.559 24.0507C48.6931 24.023 48.8228 24.0092 48.9391 24.0092C49.2029 24.0092 49.4265 24.0553 49.6099 24.1428C49.7932 24.2304 49.9408 24.364 50.0392 24.5392C50.1375 24.7143 50.1867 24.9309 50.1867 25.1843C50.1867 25.4193 50.1286 25.6359 50.0123 25.8203C49.8961 26.0092 49.7485 26.1521 49.5607 26.2534C49.3729 26.3548 49.1716 26.4055 48.948 26.4055C48.7244 26.4055 48.5143 26.3687 48.313 26.2903C48.1118 26.212 47.9151 26.0875 47.7317 25.917C47.5439 25.7465 47.365 25.5161 47.1906 25.2304L45.7373 26.1981C46.1487 26.9078 46.6093 27.4101 47.1101 27.7004C47.6154 27.9908 48.2013 28.1336 48.8765 28.1336C49.4623 28.1336 49.9944 28.0046 50.4774 27.7419C50.9559 27.4793 51.336 27.129 51.6177 26.682C51.8994 26.235 52.038 25.7281 52.038 25.1567C52.038 24.7788 51.9665 24.4286 51.8234 24.0968L51.8279 24.1106Z" fill="white" style="fill:white;fill-opacity:1;"/>
</g>
<defs>
<clipPath id="clip0_4456_418">
<rect width="48" height="22" fill="white" style="fill:white;fill-opacity:1;" transform="translate(8 13)"/>
</clipPath>
</defs>
</svg>
